# xmcd
#
# Track frame offsets:
#	150
#	17979
#	31944
#	49602
#	68226
#	85728
#	102676
#	121606
#	139293
#	156871
#	173460
#	191508
#	208370
#
# Disc length: 3003 seconds
#
# Revision: 1
# Processed by: cddbd v1.5.2PL0 Copyright (c) Steve Scherf et al.
# Submitted via: EasyCDDAExtractor 16.1.0.1
#
DISCID=b00bb90d
DTITLE=Алексей Князев - Я не сдамся, я ж такой
DYEAR=2006
DGENRE=Chanson
TTITLE0=01. Танечка
TTITLE1=02. Воркутянка
TTITLE2=03. Я не сдамся, я ж такой
TTITLE3=04. Росла шпана дворовая
TTITLE4=05. Я без тебя грущу
TTITLE5=06. Бизнесмен в законе
TTITLE6=07. Мама
TTITLE7=08. После первой не закусывай
TTITLE8=09. Заклятым друзьям посвящается
TTITLE9=10. Ты не моя
TTITLE10=11. Она ж такая жизнь
TTITLE11=12. Старый порт
TTITLE12=13. Красотка
EXTD=
EXTT0=
EXTT1=
EXTT2=
EXTT3=
EXTT4=
EXTT5=
EXTT6=
EXTT7=
EXTT8=
EXTT9=
EXTT10=
EXTT11=
EXTT12=
PLAYORDER=
